# AST/ASF file generated using VICON BodyLanguage
# -----------------------------------------------
:version 1.10
:name VICON
:units
  mass 1.0
  length 0.45
  angle deg
:documentation
   .ast/.asf automatically generated from VICON data using
   VICON BodyBuilder and BodyLanguage model FoxedUp or BRILLIANT.MOD
:root
   order TX TY TZ RX RY RZ
   axis XYZ
   position 0 0 0  
   orientation 0 0 0 
:bonedata
  begin
     id 1 
     name lhipjoint
     direction 0.643824 -0.71708 0.266994 
     length 2.52133 
     axis 0 0 0  XYZ
  end
  begin
     id 2 
     name lfemur
     direction 0.34202 -0.939693 0  
     length 7.51824  
     axis 0 0 20  XYZ
    dof rx ry rz
    limits (-160.0 20.0)
           (-70.0 70.0)
           (-60.0 70.0)
  end
  begin
     id 3 
     name ltibia
     direction 0.34202 -0.939693 0   
     length 7.3685   
     axis 0 0 20   XYZ
    dof rx
    limits (-10.0 170.0)
  end
  begin
     id 4 
     name lfoot
     direction 0.105419 -0.289636 0.951314   
     length 2.20972   
     axis -90 7.62852e-016 20   XYZ
    dof rx rz
    limits (-45.0 90.0)
           (-70.0 20.0)
  end
  begin
     id 5 
     name ltoes
     direction 1.53549e-011 -4.21833e-011 1   
     length 1.10139   
     axis -90 7.62852e-016 20   XYZ
    dof rx
    limits (-90.0 20.0)
  end
  begin
     id 6 
     name rhipjoint
     direction -0.608823 -0.743445 0.276811   
     length 2.43192  
     axis 0 0 0  XYZ 
  end
  begin
     id 7 
     name rfemur
     direction -0.34202 -0.939693 0   
     length 7.69715   
     axis 0 0 -20   XYZ
    dof rx ry rz
    limits (-160.0 20.0)
           (-70.0 70.0)
           (-70.0 60.0)
  end
  begin
     id 8 
     name rtibia
     direction -0.34202 -0.939693 0   
     length 7.44924   
     axis 0 0 -20   XYZ
    dof rx
    limits (-10.0 170.0)
 end
 begin
     id 9 
     name rfoot
     direction -0.103614 -0.284677 0.953007   
     length 2.22623  
     axis -90 -7.62852e-016 -20   XYZ
    dof rx rz
    limits (-45.0 90.0)
           (-20.0 70.0)
  end
  begin
     id 10 
     name rtoes
     direction -1.53537e-011 -4.22026e-011 1   
     length 1.11   
     axis -90 -7.62852e-016 -20   XYZ
    dof rx
    limits (-90.0 20.0)
  end
  begin
     id 11 
     name lowerback
     direction -0.0101212 0.99662 -0.0815298   
     length 2.08277   
     axis 0 0 0   XYZ
    dof rx ry rz
    limits (-20.0 45.0)
           (-30.0 30.0)
           (-30.0 30.0)
  end
  begin
     id 12 
     name upperback
     direction 0.024314 0.999591 -0.0150645   
     length 2.08524   
     axis 0 0 0   XYZ
    dof rx ry rz
    limits (-20.0 45.0)
           (-30.0 30.0)
           (-30.0 30.0)
  end
  begin
     id 13 
     name thorax
     direction 0.0285959 0.999323 0.0231357   
     length 2.09645   
     axis 0 0 0   XYZ
    dof rx ry rz
    limits (-20.0 45.0)
           (-30.0 30.0)
           (-30.0 30.0)
  end
  begin
     id 14 
     name lowerneck
     direction -0.065512 0.979301 0.191515   
     length 1.63798   
     axis 0 0 0   XYZ
    dof rx ry rz
    limits (-20.0 45.0)
           (-30.0 30.0)
           (-30.0 30.0)
  end
  begin
     id 15 
     name upperneck
     direction 0.0498479 0.98191 -0.182667   
     length 1.68731   
     axis 0 0 0   XYZ
    dof rx ry rz
    limits (-20.0 45.0)
           (-30.0 30.0)
           (-30.0 30.0)
  end
  begin
     id 16
     name head
     direction 0.0230358 0.996257 -0.0833175  
     length 1.69785  
     axis 0 0 0   XYZ
    dof rx ry rz
    limits (-20.0 45.0)
           (-30.0 30.0)
           (-30.0 30.0)
  end
  begin
     id 17 
     name lclavicle
     direction 0.967963 0.201165 -0.150269  
     length 3.63976  
     axis 0 0 0   XYZ
    dof ry rz
    limits (-20.0 10.0)
           (0.0 20.0)
  end
  begin
     id 18 
     name lhumerus
     direction 1 -4.48954e-011 -2.92837e-028   
     length 5.32462   
     axis 180 -30 -90   XYZ
    dof rx ry rz
    limits (-60.0 90.0)
           (-90.0 90.0)
           (-90.0 90.0)
  end
  begin
     id 19
     name lradius
     direction 1 -4.48958e-011 -6.39511e-027   
     length 3.48402   
     axis 180 -30 -90   XYZ
    dof rx
    limits (-10.0 170.0)
  end
  begin
     id 20
     name lwrist
     direction 1 -4.48975e-011 -1.1413e-026   
     length 1.74201   
     axis 6.88575e-015 90 90   XYZ
    dof ry
    limits (-180.0 0.0)
 end
  begin
     id 21 
     name lhand
     direction 1 -4.48899e-011 -2.28192e-026   
     length 0.572476   
     axis 1.45643e-014 90 90   XYZ
    dof rx rz
    limits (-90.0 90.0)
           (-45.0 45.0)
  end
  begin
     id 22 
     name lfingers
     direction 1 -4.49155e-011 -4.5684e-026   
     length 0.461545   
     axis 2.91283e-014 90 90   XYZ
    dof rx
    limits (0.0 90.0)
  end
  begin
     id 23
     name lthumb
     direction 0.707107 -6.34943e-011 0.707107   
     length 0.662688   
     axis -90 45 -2.25915e-014   XYZ
    dof rx rz
    limits (-45.0 45.0)
           (-45.0 45.0)
  end
  begin
     id 24 
     name rclavicle
     direction -0.964103 0.264019 -0.0282629   
     length 3.54491  
     axis 0 0 0   XYZ 
    dof ry rz
    limits (-10.0 20.0)
           (-20.0 0.0)
  end
  begin
     id 25 
     name rhumerus
     direction -1 -4.48964e-011 -2.45032e-027  
     length 5.33589   
     axis 180 30 90   XYZ
    dof rx ry rz
    limits (-90.0 60.0)
           (-90.0 90.0)
           (-90.0 90.0)
  end
  begin
     id 26 
     name rradius
     direction -1 -4.48987e-011 -1.55093e-027   
     length 3.64134   
     axis 180 30 90   XYZ
    dof rx
    limits (-10.0 170.0)
  end
  begin
     id 27 
     name rwrist
     direction -1 -4.4897e-011 -1.14128e-026   
     length 1.82067   
     axis 6.88575e-015 -90 -90   XYZ
    dof ry
    limits (-180.0 0.0)
  end
  begin
     id 28
     name rhand
     direction -1 -4.49021e-011 -2.28301e-026   
     length 0.734811   
     axis 1.45643e-014 -90 -90   XYZ
    dof rx rz
    limits (-90.0 90.0)
           (-45.0 45.0)
  end
  begin
     id 29
     name rfingers
     direction -1 -4.48862e-011 -4.56319e-026   
     length 0.592424   
     axis 2.91283e-014 -90 -90   XYZ
    dof rx
    limits (0.0 90.0)
  end
  begin
     id 30
     name rthumb
     direction -0.707107 -6.34978e-011 0.707107   
     length 0.850605   
     axis -90 -45 2.25915e-014   XYZ
    dof rx rz
    limits (-45.0 45.0)
           (-45.0 45.0)
  end
:hierarchy
  begin
    root lhipjoint rhipjoint lowerback
    lhipjoint lfemur
    lfemur ltibia
    ltibia lfoot
    lfoot ltoes
    rhipjoint rfemur
    rfemur rtibia
    rtibia rfoot
    rfoot rtoes
    lowerback upperback
    upperback thorax
    thorax lowerneck lclavicle rclavicle
    lowerneck upperneck
    upperneck head
    lclavicle lhumerus
    lhumerus lradius
    lradius lwrist
    lwrist lhand lthumb
    lhand lfingers
    rclavicle rhumerus
    rhumerus rradius
    rradius rwrist
    rwrist rhand rthumb
    rhand rfingers
  end

#!OML:ASF F:\VICON\USERDATA\INSTALL\rory3\rory3.ASF
:FULLY-SPECIFIED
:DEGREES
259
root 2.21804 17.6749 0.458129 1.98518 10.3973 -2.34967
lowerback 11.4239 3.30536 1.58998
upperback 2.94736 4.64858 1.97548
thorax -3.34738 2.30074 0.506006
lowerneck -28.8766 -8.4495 -11.2181
upperneck -3.81566 -7.54954 6.64057
head 3.70402 -3.13247 3.05411
rclavicle 9.44227e-015 -1.59028e-014
rhumerus 49.1256 -31.676 -53.1234
rradius 59.5186
rwrist 24.5073
rhand -53.8221 -8.21408
rfingers 7.12502
rthumb -26.2531 -36.4179
lclavicle 9.44227e-015 -1.59028e-014
lhumerus -33.62 12.0014 63.9329
lradius 43.3783
lwrist -0.817649
lhand -16.9216 30.543
lfingers 7.12502
lthumb 9.31096 60.3174
rfemur -10.3516 -4.27405 12.3079
rtibia 27.5143
rfoot -18.1496 -14.2022
rtoes -0.00854277
lfemur -14.9093 -2.72793 -14.9368
ltibia 32.6773
lfoot -16.5557 2.01348
ltoes -19.9687
260
root 2.22682 17.6727 0.478554 1.86821 10.5906 -2.53829
lowerback 11.1715 3.41971 1.51381
upperback 2.93092 4.78103 1.86356
thorax -3.2228 2.36827 0.429582
lowerneck -29.0038 -8.67225 -11.4592
upperneck -3.56955 -7.76333 6.88901
head 3.83628 -3.21708 3.13801
rclavicle -1.92821e-014 -6.36111e-015
rhumerus 49.7621 -31.8979 -52.7284
rradius 58.9223
rwrist 24.0758
rhand -53.962 -8.28777
rfingers 7.12502
rthumb -26.3869 -36.4716
lclavicle -1.92821e-014 -6.36111e-015
lhumerus -33.7754 13.0135 63.1774
lradius 42.5386
lwrist -0.670377
lhand -17.1342 32.1596
lfingers 7.12502
lthumb 9.10588 61.943
rfemur -10.0224 -4.26875 12.5001
rtibia 27.3069
rfoot -18.2583 -14.3895
rtoes -0.211584
lfemur -14.8116 -2.70128 -14.7468
ltibia 32.7237
lfoot -16.678 1.82808
ltoes -19.9553
261
root 2.23824 17.6689 0.498385 1.77079 10.8699 -2.65602
lowerback 10.9384 3.50286 1.46169
upperback 2.91101 4.87284 1.66962
thorax -3.10289 2.41538 0.26043
lowerneck -29.4704 -8.90072 -11.7188
upperneck -2.97826 -7.95754 7.2953
head 4.13131 -3.27722 3.26748
rclavicle 5.23798e-014 2.38542e-015
rhumerus 50.4865 -32.2403 -52.7257
rradius 58.3008
rwrist 23.896
rhand -54.0475 -8.33046
rfingers 7.12502
rthumb -26.4687 -36.502
lclavicle 5.23798e-014 2.38542e-015
lhumerus -33.9107 13.8292 62.3421
lradius 41.6004
lwrist -0.65082
lhand -17.6746 31.7452
lfingers 7.12502
lthumb 8.58441 61.5506
rfemur -9.66509 -4.37013 12.5907
rtibia 27.0937
rfoot -18.4128 -14.4045
rtoes 0.475044
lfemur -14.7528 -2.74289 -14.656
ltibia 32.7814
lfoot -16.761 1.63059
ltoes -20.0023
262
root 2.25232 17.6657 0.516253 1.62912 11.2608 -2.72858
lowerback 10.8251 3.5168 1.43057
upperback 2.82323 4.87901 1.44552
thorax -3.11484 2.41824 0.0498033
lowerneck -29.5138 -9.02593 -11.851
upperneck -2.6755 -8.10406 7.61508
head 4.27099 -3.32652 3.36724
rclavicle 4.21423e-014 2.38542e-015
rhumerus 50.825 -32.4711 -52.5328
rradius 57.736
rwrist 23.6264
rhand -54.2585 -8.46126
rfingers 7.12502
rthumb -26.6707 -36.6022
lclavicle 4.21423e-014 2.38542e-015
lhumerus -34.1854 14.4833 61.5176
lradius 40.6961
lwrist -0.454078
lhand -18.5074 31.0216
lfingers 7.12502
lthumb 7.78061 60.8584
rfemur -9.23185 -4.51688 12.628
rtibia 26.8657
rfoot -18.6406 -14.5889
rtoes 0.317944
lfemur -14.6637 -2.89609 -14.6212
ltibia 32.8508
lfoot -16.8494 1.40192
ltoes -20.0101
263
root 2.26584 17.6665 0.536749 1.45865 11.5804 -2.83941
lowerback 10.7807 3.55157 1.38128
upperback 2.66829 4.91502 1.25889
thorax -3.23902 2.4344 -0.12337
lowerneck -29.0165 -9.10327 -11.8204
upperneck -2.78174 -8.28488 7.71373
head 4.19714 -3.41802 3.38016
rclavicle 3.13086e-015 7.55382e-015
rhumerus 51.1046 -32.6161 -52.2817
rradius 57.124
rwrist 23.4683
rhand -54.4488 -8.52891
rfingers 7.12502
rthumb -26.8529 -36.642
lclavicle 3.13086e-015 7.55382e-015
lhumerus -34.5969 14.9908 60.7453
lradius 39.884
lwrist -0.222954
lhand -18.7782 30.8376
lfingers 7.12502
lthumb 7.51927 60.6839
rfemur -8.77622 -4.55697 12.7147
rtibia 26.6152
rfoot -18.8731 -14.8896
rtoes -0.0283994
lfemur -14.5108 -3.00483 -14.5365
ltibia 32.9272
lfoot -16.9891 1.18148
ltoes -19.8469
